<svg xmlns="http://www.w3.org/2000/svg" width="108" height="108" viewBox="0 0 108 108">
  <!-- Shifted left by 4.375 to center capsule at x=54
       Capsule: left=14.875, right=93.125, center=54 ✓
       Circle center=(75.625,54), outer r=13.875
       Center→top = 54-35.5 = 18.5, center→right = 93.125-75.625 = 17.5 -->
  <path fill-rule="evenodd" fill="#FFFFFF" d="
    M34.68,35.5
    C30.16,35.5 26.31,35.5 23.27,36.14
    C20.22,36.78 17.71,37.92 15.81,39.82
    C13.91,41.72 12.77,44.23 12.13,47.28
    C11.49,50.32 11.49,54 11.49,54
    C11.49,54 11.49,57.68 12.13,60.72
    C12.77,63.77 13.91,66.28 15.81,68.18
    C17.71,70.08 20.22,71.22 23.27,71.86
    C26.31,72.5 30.16,72.5 34.68,72.5
    H72.43
    C76.95,72.5 80.8,72.5 83.84,71.86
    C86.89,71.22 89.4,70.08 91.3,68.18
    C93.2,66.28 94.34,63.77 94.98,60.72
    C95.62,57.68 95.62,54 95.62,54
    C95.62,54 95.62,50.32 94.98,47.28
    C94.34,44.23 93.2,41.72 91.3,39.82
    C89.4,37.92 86.89,36.78 83.84,36.14
    C80.8,35.5 76.95,35.5 72.43,35.5
    Z
    M75.625,40.125 A13.875,13.875 0 0 0 75.625,67.875 A13.875,13.875 0 0 0 75.625,40.125 Z
  " />
  <circle cx="75.625" cy="54" r="4.625" fill="#FFFFFF" />
  <path fill="none" stroke="#FFFFFF" stroke-width="0.925" stroke-linecap="round" d="M75.625,44.75 A9.25,9.25 0 1 1 67.535,59.02" />
  <path fill="none" stroke="#FFFFFF" stroke-width="0.925" stroke-linecap="round" d="M66.375,54 A9.25,9.25 0 0 1 71,45.99" />
</svg>
